<?xml version="1.0" encoding="us-ascii" standalone="no"?><svg xmlns="http://www.w3.org/2000/svg" xmlns:xlink="http://www.w3.org/1999/xlink" contentStyleType="text/css" height="645px" preserveAspectRatio="none" style="width:439px;height:645px;" version="1.1" viewBox="0 0 439 645" width="439px" zoomAndPan="magnify"><defs><filter height="300%" id="f1ibmzhee5g7jk" width="300%" x="-1" y="-1"><feGaussianBlur result="blurOut" stdDeviation="2.0"/><feColorMatrix in="blurOut" result="blurOut2" type="matrix" values="0 0 0 0 0 0 0 0 0 0 0 0 0 0 0 0 0 0 .4 0"/><feOffset dx="4.0" dy="4.0" in="blurOut2" result="blurOut3"/><feBlend in="SourceGraphic" in2="blurOut3" mode="normal"/></filter></defs><g><!--class AggregateRoot<T>--><g id="elem_AggregateRoot&lt;T&gt;"><rect codeLine="10" fill="#FCF2CC" filter="url(#f1ibmzhee5g7jk)" height="130.4414" id="AggregateRoot&lt;T&gt;" style="stroke:#5A0000;stroke-width:2.0;" width="380" x="28" y="164.46"/><ellipse cx="144.25" cy="180.46" fill="#A9DCDF" rx="11" ry="11" style="stroke:#181818;stroke-width:1.0;"/><path d="M144.1133,175.8081 L142.9595,180.8799 L145.2754,180.8799 Z M142.6191,173.5669 L145.6157,173.5669 L148.9609,185.96 L146.5122,185.96 L145.7485,182.897 L142.4697,182.897 L141.7227,185.96 L139.2739,185.96 Z " fill="#000000"/><text fill="#000000" font-family="sans-serif" font-size="14" font-style="italic" font-weight="bold" lengthAdjust="spacing" textLength="139" x="164.75" y="185.751">AggregateRoot&lt;T&gt;</text><line style="stroke:#5A0000;stroke-width:2.0;" x1="29" x2="407" y1="196.46" y2="196.46"/><ellipse cx="39" cy="210.2041" fill="none" rx="3" ry="3" style="stroke:#038048;stroke-width:1.0;"/><text fill="#000000" font-family="sans-serif" font-size="14" font-weight="bold" lengthAdjust="spacing" textLength="41" x="48" y="213.9952">props</text><text fill="#000000" font-family="sans-serif" font-size="14" lengthAdjust="spacing" textLength="17" x="93" y="213.9952">: T</text><polygon fill="none" points="39,221.6924,43,225.6924,39,229.6924,35,225.6924" style="stroke:#B38D22;stroke-width:1.0;"/><text fill="#000000" font-family="sans-serif" font-size="14" font-weight="bold" lengthAdjust="spacing" textLength="21" x="48" y="230.4834">_id</text><text fill="#000000" font-family="sans-serif" font-size="14" lengthAdjust="spacing" textLength="109" x="73" y="230.4834">: UniqueEntityID</text><line style="stroke:#5A0000;stroke-width:2.0;" x1="29" x2="407" y1="237.4366" y2="237.4366"/><ellipse cx="39" cy="251.1807" fill="#84BE84" rx="3" ry="3" style="stroke:#038048;stroke-width:1.0;"/><text fill="#000000" font-family="sans-serif" font-size="14" lengthAdjust="spacing" textLength="128" x="48" y="254.9717">clearEvents() : void</text><ellipse cx="39" cy="267.669" fill="#84BE84" rx="3" ry="3" style="stroke:#038048;stroke-width:1.0;"/><text fill="#000000" font-family="sans-serif" font-size="14" lengthAdjust="spacing" textLength="295" x="48" y="271.46">equals(object: DomainEntity&lt;T&gt;) : boolean</text><polygon fill="#FFFF44" points="39,279.1573,43,283.1573,39,287.1573,35,283.1573" style="stroke:#B38D22;stroke-width:1.0;"/><text fill="#000000" font-family="sans-serif" font-size="14" lengthAdjust="spacing" textLength="354" x="48" y="287.9483">addDomainEvent(domainEvent: DomainEvent) : void</text></g><!--class DomainEntity<T>--><g id="elem_DomainEntity&lt;T&gt;"><rect codeLine="17" fill="#FCF2CC" filter="url(#f1ibmzhee5g7jk)" height="97.4648" id="DomainEntity&lt;T&gt;" style="stroke:#5A0000;stroke-width:2.0;" width="321" x="57.5" y="7"/><ellipse cx="148.75" cy="23" fill="#A9DCDF" rx="11" ry="11" style="stroke:#181818;stroke-width:1.0;"/><path d="M148.6133,18.3481 L147.4595,23.4199 L149.7754,23.4199 Z M147.1191,16.1069 L150.1157,16.1069 L153.4609,28.5 L151.0122,28.5 L150.2485,25.437 L146.9697,25.437 L146.2227,28.5 L143.7739,28.5 Z " fill="#000000"/><text fill="#000000" font-family="sans-serif" font-size="14" font-style="italic" font-weight="bold" lengthAdjust="spacing" textLength="130" x="169.25" y="28.291">DomainEntity&lt;T&gt;</text><line style="stroke:#5A0000;stroke-width:2.0;" x1="58.5" x2="377.5" y1="39" y2="39"/><ellipse cx="68.5" cy="52.7441" fill="none" rx="3" ry="3" style="stroke:#038048;stroke-width:1.0;"/><text fill="#000000" font-family="sans-serif" font-size="14" font-weight="bold" lengthAdjust="spacing" textLength="41" x="77.5" y="56.5352">props</text><text fill="#000000" font-family="sans-serif" font-size="14" lengthAdjust="spacing" textLength="17" x="122.5" y="56.5352">: T</text><polygon fill="none" points="68.5,64.2324,72.5,68.2324,68.5,72.2324,64.5,68.2324" style="stroke:#B38D22;stroke-width:1.0;"/><text fill="#000000" font-family="sans-serif" font-size="14" font-weight="bold" lengthAdjust="spacing" textLength="21" x="77.5" y="73.0234">_id</text><text fill="#000000" font-family="sans-serif" font-size="14" lengthAdjust="spacing" textLength="109" x="102.5" y="73.0234">: UniqueEntityID</text><line style="stroke:#5A0000;stroke-width:2.0;" x1="58.5" x2="377.5" y1="79.9766" y2="79.9766"/><ellipse cx="68.5" cy="93.7207" fill="#84BE84" rx="3" ry="3" style="stroke:#038048;stroke-width:1.0;"/><text fill="#000000" font-family="sans-serif" font-size="14" lengthAdjust="spacing" textLength="295" x="77.5" y="97.5117">equals(object: DomainEntity&lt;T&gt;) : boolean</text></g><!--class Customer--><g id="elem_Customer"><rect codeLine="23" fill="#FCF2CC" filter="url(#f1ibmzhee5g7jk)" height="278.8359" id="Customer" style="stroke:#5A0000;stroke-width:2.0;" width="418" x="9" y="354.9"/><ellipse cx="178.75" cy="370.9" fill="#ADD1B2" rx="11" ry="11" style="stroke:#181818;stroke-width:1.0;"/><path d="M181.2231,377.0431 Q180.6421,377.3419 180.0029,377.4913 Q179.3638,377.6407 178.6582,377.6407 Q176.1514,377.6407 174.8315,375.9889 Q173.5117,374.337 173.5117,371.2159 Q173.5117,368.0865 174.8315,366.4347 Q176.1514,364.7828 178.6582,364.7828 Q179.3638,364.7828 180.0112,364.9322 Q180.6587,365.0816 181.2231,365.3805 L181.2231,368.1031 Q180.5923,367.5221 179.9988,367.2523 Q179.4053,366.9825 178.7744,366.9825 Q177.4297,366.9825 176.7449,368.0492 Q176.0601,369.1158 176.0601,371.2159 Q176.0601,373.3077 176.7449,374.3744 Q177.4297,375.441 178.7744,375.441 Q179.4053,375.441 179.9988,375.1712 Q180.5923,374.9015 181.2231,374.3204 Z " fill="#000000"/><text fill="#000000" font-family="sans-serif" font-size="14" font-weight="bold" lengthAdjust="spacing" textLength="70" x="199.25" y="376.191">Customer</text><line style="stroke:#5A0000;stroke-width:2.0;" x1="10" x2="426" y1="386.9" y2="386.9"/><ellipse cx="20" cy="400.6441" fill="none" rx="3" ry="3" style="stroke:#038048;stroke-width:1.0;"/><text fill="#000000" font-family="sans-serif" font-size="14" font-weight="bold" lengthAdjust="spacing" textLength="41" x="29" y="404.4352">props</text><text fill="#000000" font-family="sans-serif" font-size="14" lengthAdjust="spacing" textLength="114" x="74" y="404.4352">: CustomerProps</text><ellipse cx="20" cy="417.1324" fill="none" rx="3" ry="3" style="stroke:#038048;stroke-width:1.0;"/><text fill="#000000" font-family="sans-serif" font-size="14" font-weight="bold" lengthAdjust="spacing" textLength="63" x="29" y="420.9234">_address</text><text fill="#000000" font-family="sans-serif" font-size="14" lengthAdjust="spacing" textLength="48" x="96" y="420.9234">: string</text><ellipse cx="20" cy="433.6207" fill="none" rx="3" ry="3" style="stroke:#038048;stroke-width:1.0;"/><text fill="#000000" font-family="sans-serif" font-size="14" font-weight="bold" lengthAdjust="spacing" textLength="75" x="29" y="437.4117">_createdAt</text><text fill="#000000" font-family="sans-serif" font-size="14" lengthAdjust="spacing" textLength="39" x="108" y="437.4117">: Date</text><ellipse cx="20" cy="450.109" fill="none" rx="3" ry="3" style="stroke:#038048;stroke-width:1.0;"/><text fill="#000000" font-family="sans-serif" font-size="14" font-weight="bold" lengthAdjust="spacing" textLength="47" x="29" y="453.9">_email</text><text fill="#000000" font-family="sans-serif" font-size="14" lengthAdjust="spacing" textLength="48" x="80" y="453.9">: string</text><ellipse cx="20" cy="466.5973" fill="none" rx="3" ry="3" style="stroke:#038048;stroke-width:1.0;"/><text fill="#000000" font-family="sans-serif" font-size="14" font-weight="bold" lengthAdjust="spacing" textLength="46" x="29" y="470.3883">_name</text><text fill="#000000" font-family="sans-serif" font-size="14" lengthAdjust="spacing" textLength="48" x="79" y="470.3883">: string</text><ellipse cx="20" cy="483.0855" fill="none" rx="3" ry="3" style="stroke:#038048;stroke-width:1.0;"/><text fill="#000000" font-family="sans-serif" font-size="14" font-weight="bold" lengthAdjust="spacing" textLength="81" x="29" y="486.8766">_updatedAt</text><text fill="#000000" font-family="sans-serif" font-size="14" lengthAdjust="spacing" textLength="39" x="114" y="486.8766">: Date</text><polygon fill="none" points="20,494.5738,24,498.5738,20,502.5738,16,498.5738" style="stroke:#B38D22;stroke-width:1.0;"/><text fill="#000000" font-family="sans-serif" font-size="14" font-weight="bold" lengthAdjust="spacing" textLength="21" x="29" y="503.3648">_id</text><text fill="#000000" font-family="sans-serif" font-size="14" lengthAdjust="spacing" textLength="109" x="54" y="503.3648">: UniqueEntityID</text><line style="stroke:#5A0000;stroke-width:2.0;" x1="10" x2="426" y1="510.318" y2="510.318"/><ellipse cx="20" cy="524.0621" fill="#84BE84" rx="3" ry="3" style="stroke:#038048;stroke-width:1.0;"/><text fill="#000000" font-family="sans-serif" font-size="14" lengthAdjust="spacing" textLength="128" x="29" y="527.8531">clearEvents() : void</text><ellipse cx="20" cy="540.5504" fill="#84BE84" rx="3" ry="3" style="stroke:#038048;stroke-width:1.0;"/><text fill="#000000" font-family="sans-serif" font-size="14" lengthAdjust="spacing" text-decoration="underline" textLength="354" x="29" y="544.3414">create(props: CustomerProps, id: string) : Customer</text><ellipse cx="20" cy="557.0387" fill="#84BE84" rx="3" ry="3" style="stroke:#038048;stroke-width:1.0;"/><text fill="#000000" font-family="sans-serif" font-size="14" lengthAdjust="spacing" textLength="392" x="29" y="560.8297">equals(object: DomainEntity&lt;CustomerProps&gt;) : boolean</text><ellipse cx="20" cy="573.527" fill="#84BE84" rx="3" ry="3" style="stroke:#038048;stroke-width:1.0;"/><text fill="#000000" font-family="sans-serif" font-size="14" lengthAdjust="spacing" textLength="257" x="29" y="577.318">updateAddress(address: string) : void</text><ellipse cx="20" cy="590.0152" fill="#84BE84" rx="3" ry="3" style="stroke:#038048;stroke-width:1.0;"/><text fill="#000000" font-family="sans-serif" font-size="14" lengthAdjust="spacing" textLength="221" x="29" y="593.8063">updateEmail(email: string) : void</text><ellipse cx="20" cy="606.5035" fill="#84BE84" rx="3" ry="3" style="stroke:#038048;stroke-width:1.0;"/><text fill="#000000" font-family="sans-serif" font-size="14" lengthAdjust="spacing" textLength="224" x="29" y="610.2945">updateName(name: string) : void</text><polygon fill="#FFFF44" points="20,617.9918,24,621.9918,20,625.9918,16,621.9918" style="stroke:#B38D22;stroke-width:1.0;"/><text fill="#000000" font-family="sans-serif" font-size="14" lengthAdjust="spacing" textLength="354" x="29" y="626.7828">addDomainEvent(domainEvent: DomainEvent) : void</text></g><!--reverse link DomainEntity<T> to AggregateRoot<T>--><g id="link_DomainEntity&lt;T&gt;_AggregateRoot&lt;T&gt;"><path codeLine="22" d="M218,122.63 C218,141.01 218,144.31 218,164.01 " fill="none" id="DomainEntity&lt;T&gt;-backto-AggregateRoot&lt;T&gt;" style="stroke:#181818;stroke-width:1.0;"/><polygon fill="none" points="218,104.63,212,122.63,224,122.63,218,104.63" style="stroke:#181818;stroke-width:1.0;"/></g><!--reverse link AggregateRoot<T> to Customer--><g id="link_AggregateRoot&lt;T&gt;_Customer"><path codeLine="39" d="M218,313.27 C218,331.42 218,333.89 218,354.6 " fill="none" id="AggregateRoot&lt;T&gt;-backto-Customer" style="stroke:#181818;stroke-width:1.0;"/><polygon fill="none" points="218,295.27,212,313.27,224,313.27,218,295.27" style="stroke:#181818;stroke-width:1.0;"/></g><!--SRC=[fLF1JiCm3BttAoAu50428N51qwIn3OaBGZ3EA4syBgoDI-A29jY_uovbBLi727fg_9xpdbzTFpUsa4xcOfX9xw_GqZqjCX09PZhoNz5BgUQfmzBg8MRen5HDpvJQOg7Ju0BZN9xoqsBSXMvdmOdJxix9pAYv1U_5MJGp6WJa1It4r42cVRkI0ysGIyqjzpEfyTNOL90heGLiEYSdhMS8B4KoyNnK95JbGUmDqjH1AWdk4AatwU-9jqZmSzXB-eN3mlTEahwu49DLTP-hZqRNjGThdaiOMpAqk1w5DfM1TECNblBn0NDUqEY0m7CfCnzZyWIABiG8SsbiQ6RTYfiWShSDIbBhcb9T5klcVTrR7TOQowtHDXJ-Ezdl_I-ZRUtU-_5nHzfHxNLOUi8St2wJd_XjLLip7ZaanxjJatXyteO6LGvOIW-enaTyQb1WXzcEJYjps06LXUw-z1-xyUP9ab5BfgminwlHDwO-4aP_sZbeHVBpr_bopTQc7OQ91Y7Ak8wqhTJiSA2Eg-JYLNxVqMuunBXAifFqXmNl-5d3MgstvmC0]--></g></svg>