<?xml version="1.0" encoding="us-ascii" standalone="no"?><svg xmlns="http://www.w3.org/2000/svg" xmlns:xlink="http://www.w3.org/1999/xlink" contentStyleType="text/css" height="488px" preserveAspectRatio="none" style="width:439px;height:488px;" version="1.1" viewBox="0 0 439 488" width="439px" zoomAndPan="magnify"><defs><filter height="300%" id="fereq04va1fgx" width="300%" x="-1" y="-1"><feGaussianBlur result="blurOut" stdDeviation="2.0"/><feColorMatrix in="blurOut" result="blurOut2" type="matrix" values="0 0 0 0 0 0 0 0 0 0 0 0 0 0 0 0 0 0 .4 0"/><feOffset dx="4.0" dy="4.0" in="blurOut2" result="blurOut3"/><feBlend in="SourceGraphic" in2="blurOut3" mode="normal"/></filter></defs><g><!--class Customer--><g id="elem_Customer"><rect codeLine="10" fill="#FCF2CC" filter="url(#fereq04va1fgx)" height="278.8359" id="Customer" style="stroke:#5A0000;stroke-width:2.0;" width="418" x="9" y="197.44"/><ellipse cx="178.75" cy="213.44" fill="#ADD1B2" rx="11" ry="11" style="stroke:#181818;stroke-width:1.0;"/><path d="M181.2231,219.5831 Q180.6421,219.8819 180.0029,220.0313 Q179.3638,220.1807 178.6582,220.1807 Q176.1514,220.1807 174.8315,218.5289 Q173.5117,216.877 173.5117,213.7559 Q173.5117,210.6265 174.8315,208.9747 Q176.1514,207.3228 178.6582,207.3228 Q179.3638,207.3228 180.0112,207.4722 Q180.6587,207.6216 181.2231,207.9205 L181.2231,210.6431 Q180.5923,210.0621 179.9988,209.7923 Q179.4053,209.5225 178.7744,209.5225 Q177.4297,209.5225 176.7449,210.5892 Q176.0601,211.6558 176.0601,213.7559 Q176.0601,215.8477 176.7449,216.9144 Q177.4297,217.981 178.7744,217.981 Q179.4053,217.981 179.9988,217.7112 Q180.5923,217.4415 181.2231,216.8604 Z " fill="#000000"/><text fill="#000000" font-family="sans-serif" font-size="14" font-weight="bold" lengthAdjust="spacing" textLength="70" x="199.25" y="218.731">Customer</text><line style="stroke:#5A0000;stroke-width:2.0;" x1="10" x2="426" y1="229.44" y2="229.44"/><ellipse cx="20" cy="243.1841" fill="none" rx="3" ry="3" style="stroke:#038048;stroke-width:1.0;"/><text fill="#000000" font-family="sans-serif" font-size="14" font-weight="bold" lengthAdjust="spacing" textLength="41" x="29" y="246.9752">props</text><text fill="#000000" font-family="sans-serif" font-size="14" lengthAdjust="spacing" textLength="114" x="74" y="246.9752">: CustomerProps</text><ellipse cx="20" cy="259.6724" fill="none" rx="3" ry="3" style="stroke:#038048;stroke-width:1.0;"/><text fill="#000000" font-family="sans-serif" font-size="14" font-weight="bold" lengthAdjust="spacing" textLength="63" x="29" y="263.4634">_address</text><text fill="#000000" font-family="sans-serif" font-size="14" lengthAdjust="spacing" textLength="48" x="96" y="263.4634">: string</text><ellipse cx="20" cy="276.1607" fill="none" rx="3" ry="3" style="stroke:#038048;stroke-width:1.0;"/><text fill="#000000" font-family="sans-serif" font-size="14" font-weight="bold" lengthAdjust="spacing" textLength="75" x="29" y="279.9517">_createdAt</text><text fill="#000000" font-family="sans-serif" font-size="14" lengthAdjust="spacing" textLength="39" x="108" y="279.9517">: Date</text><ellipse cx="20" cy="292.649" fill="none" rx="3" ry="3" style="stroke:#038048;stroke-width:1.0;"/><text fill="#000000" font-family="sans-serif" font-size="14" font-weight="bold" lengthAdjust="spacing" textLength="47" x="29" y="296.44">_email</text><text fill="#000000" font-family="sans-serif" font-size="14" lengthAdjust="spacing" textLength="48" x="80" y="296.44">: string</text><ellipse cx="20" cy="309.1373" fill="none" rx="3" ry="3" style="stroke:#038048;stroke-width:1.0;"/><text fill="#000000" font-family="sans-serif" font-size="14" font-weight="bold" lengthAdjust="spacing" textLength="46" x="29" y="312.9283">_name</text><text fill="#000000" font-family="sans-serif" font-size="14" lengthAdjust="spacing" textLength="48" x="79" y="312.9283">: string</text><ellipse cx="20" cy="325.6255" fill="none" rx="3" ry="3" style="stroke:#038048;stroke-width:1.0;"/><text fill="#000000" font-family="sans-serif" font-size="14" font-weight="bold" lengthAdjust="spacing" textLength="81" x="29" y="329.4166">_updatedAt</text><text fill="#000000" font-family="sans-serif" font-size="14" lengthAdjust="spacing" textLength="39" x="114" y="329.4166">: Date</text><polygon fill="none" points="20,337.1138,24,341.1138,20,345.1138,16,341.1138" style="stroke:#B38D22;stroke-width:1.0;"/><text fill="#000000" font-family="sans-serif" font-size="14" font-weight="bold" lengthAdjust="spacing" textLength="21" x="29" y="345.9048">_id</text><text fill="#000000" font-family="sans-serif" font-size="14" lengthAdjust="spacing" textLength="109" x="54" y="345.9048">: UniqueEntityID</text><line style="stroke:#5A0000;stroke-width:2.0;" x1="10" x2="426" y1="352.858" y2="352.858"/><ellipse cx="20" cy="366.6021" fill="#84BE84" rx="3" ry="3" style="stroke:#038048;stroke-width:1.0;"/><text fill="#000000" font-family="sans-serif" font-size="14" lengthAdjust="spacing" textLength="128" x="29" y="370.3931">clearEvents() : void</text><ellipse cx="20" cy="383.0904" fill="#84BE84" rx="3" ry="3" style="stroke:#038048;stroke-width:1.0;"/><text fill="#000000" font-family="sans-serif" font-size="14" lengthAdjust="spacing" text-decoration="underline" textLength="354" x="29" y="386.8814">create(props: CustomerProps, id: string) : Customer</text><ellipse cx="20" cy="399.5787" fill="#84BE84" rx="3" ry="3" style="stroke:#038048;stroke-width:1.0;"/><text fill="#000000" font-family="sans-serif" font-size="14" lengthAdjust="spacing" textLength="392" x="29" y="403.3697">equals(object: DomainEntity&lt;CustomerProps&gt;) : boolean</text><ellipse cx="20" cy="416.067" fill="#84BE84" rx="3" ry="3" style="stroke:#038048;stroke-width:1.0;"/><text fill="#000000" font-family="sans-serif" font-size="14" lengthAdjust="spacing" textLength="257" x="29" y="419.858">updateAddress(address: string) : void</text><ellipse cx="20" cy="432.5552" fill="#84BE84" rx="3" ry="3" style="stroke:#038048;stroke-width:1.0;"/><text fill="#000000" font-family="sans-serif" font-size="14" lengthAdjust="spacing" textLength="221" x="29" y="436.3463">updateEmail(email: string) : void</text><ellipse cx="20" cy="449.0435" fill="#84BE84" rx="3" ry="3" style="stroke:#038048;stroke-width:1.0;"/><text fill="#000000" font-family="sans-serif" font-size="14" lengthAdjust="spacing" textLength="224" x="29" y="452.8345">updateName(name: string) : void</text><polygon fill="#FFFF44" points="20,460.5318,24,464.5318,20,468.5318,16,464.5318" style="stroke:#B38D22;stroke-width:1.0;"/><text fill="#000000" font-family="sans-serif" font-size="14" lengthAdjust="spacing" textLength="354" x="29" y="469.3228">addDomainEvent(domainEvent: DomainEvent) : void</text></g><!--class AggregateRoot<CustomerProps>--><g id="elem_AggregateRoot&lt;CustomerProps&gt;"><rect codeLine="26" fill="#FCF2CC" filter="url(#fereq04va1fgx)" height="130.4414" id="AggregateRoot&lt;CustomerProps&gt;" style="stroke:#5A0000;stroke-width:2.0;" width="418" x="9" y="7"/><ellipse cx="93.75" cy="23" fill="#A9DCDF" rx="11" ry="11" style="stroke:#181818;stroke-width:1.0;"/><path d="M93.6133,18.3481 L92.4595,23.4199 L94.7754,23.4199 Z M92.1191,16.1069 L95.1157,16.1069 L98.4609,28.5 L96.0122,28.5 L95.2485,25.437 L91.9697,25.437 L91.2227,28.5 L88.7739,28.5 Z " fill="#000000"/><text fill="#000000" font-family="sans-serif" font-size="14" font-style="italic" font-weight="bold" lengthAdjust="spacing" textLength="240" x="114.25" y="28.291">AggregateRoot&lt;CustomerProps&gt;</text><line style="stroke:#5A0000;stroke-width:2.0;" x1="10" x2="426" y1="39" y2="39"/><ellipse cx="20" cy="52.7441" fill="none" rx="3" ry="3" style="stroke:#038048;stroke-width:1.0;"/><text fill="#000000" font-family="sans-serif" font-size="14" font-weight="bold" lengthAdjust="spacing" textLength="41" x="29" y="56.5352">props</text><text fill="#000000" font-family="sans-serif" font-size="14" lengthAdjust="spacing" textLength="114" x="74" y="56.5352">: CustomerProps</text><polygon fill="none" points="20,64.2324,24,68.2324,20,72.2324,16,68.2324" style="stroke:#B38D22;stroke-width:1.0;"/><text fill="#000000" font-family="sans-serif" font-size="14" font-weight="bold" lengthAdjust="spacing" textLength="21" x="29" y="73.0234">_id</text><text fill="#000000" font-family="sans-serif" font-size="14" lengthAdjust="spacing" textLength="109" x="54" y="73.0234">: UniqueEntityID</text><line style="stroke:#5A0000;stroke-width:2.0;" x1="10" x2="426" y1="79.9766" y2="79.9766"/><ellipse cx="20" cy="93.7207" fill="#84BE84" rx="3" ry="3" style="stroke:#038048;stroke-width:1.0;"/><text fill="#000000" font-family="sans-serif" font-size="14" lengthAdjust="spacing" textLength="128" x="29" y="97.5117">clearEvents() : void</text><ellipse cx="20" cy="110.209" fill="#84BE84" rx="3" ry="3" style="stroke:#038048;stroke-width:1.0;"/><text fill="#000000" font-family="sans-serif" font-size="14" lengthAdjust="spacing" textLength="392" x="29" y="114">equals(object: DomainEntity&lt;CustomerProps&gt;) : boolean</text><polygon fill="#FFFF44" points="20,121.6973,24,125.6973,20,129.6973,16,125.6973" style="stroke:#B38D22;stroke-width:1.0;"/><text fill="#000000" font-family="sans-serif" font-size="14" lengthAdjust="spacing" textLength="354" x="29" y="130.4883">addDomainEvent(domainEvent: DomainEvent) : void</text></g><!--reverse link AggregateRoot<CustomerProps> to Customer--><g id="link_AggregateRoot&lt;CustomerProps&gt;_Customer"><path codeLine="33" d="M218,155.81 C218,173.96 218,176.43 218,197.14 " fill="none" id="AggregateRoot&lt;CustomerProps&gt;-backto-Customer" style="stroke:#181818;stroke-width:1.0;"/><polygon fill="none" points="218,137.81,212,155.81,224,155.81,218,137.81" style="stroke:#181818;stroke-width:1.0;"/></g><!--SRC=[fLDDJy904BttLspaKgD4OkB54184JBmOuyVPR7U7ijBkbDsfXgZ_tIajRK5G8tjgvxsPUUzrw-V6PjB9L8mIwVqrMdgWPG8YmaG7VXEzaceUEyoj7c62JapLz5ofRonq6bp9k90zFYt6VTdjB3ZHsztvE3DgRi5xSHxCZ0O1QKPBCJMGQD-kf40pv58pvM4cDRuP6mjoERI0RUNafFKCWQL05Ql5qIZtX2cu8_4U23ud_MYGESny_omQY4knnk-AMirubbexrbgHF3dUtg3AWIJGGwhmCRyrAAJI97iwhKnX3vHdUlVGJe4QNPMVh5daCB5aQ7apBjjL0j9DNjcs3u-Pyuf6hv1tJvAC-cJAIdAuihxb-bGOlPPpt8gad0sBN2O-nEW55B4gP7UsND_V63CeUYD4rcBBrjBHi8moh29jRwfrLjH9aLouokydsYs761P9xYHrU56biaWarCrpBRzugPi-0ndn7Ab8L9Tc6CSEOjvqZqXRBlz-aGxuRWUa_W_xl_ZjVtIxhH_f2m00]--></g></svg>